HIERARCHY
ROOT Hips
{
 OFFSET 0.000000 0.000000 0.000000
 CHANNELS 6 Xposition Yposition Zposition Yrotation Xrotation Zrotation
 JOINT Chest
 {
  OFFSET 0.000000 9.585900 0.002600
  CHANNELS 3 Yrotation Xrotation Zrotation
  JOINT Chest2
  {
   OFFSET 0.000000 9.601200 -0.005300
   CHANNELS 3 Yrotation Xrotation Zrotation
   JOINT Chest3
   {
    OFFSET 0.000000 9.561800 0.000000
    CHANNELS 3 Yrotation Xrotation Zrotation
    JOINT Chest4
    {
     OFFSET 0.000000 9.552100 0.000000
     CHANNELS 3 Yrotation Xrotation Zrotation
     JOINT Neck
     {
      OFFSET 0.000000 14.453000 0.000000
      CHANNELS 3 Yrotation Xrotation Zrotation
      JOINT Head
      {
       OFFSET 0.000000 8.936500 -0.011300
       CHANNELS 3 Yrotation Xrotation Zrotation
       End Site
       {
        OFFSET 0.000000 17.073600 -0.006000
       }
      }
     }
     JOINT RightCollar
     {
      OFFSET -2.921100 9.558500 0.000000
      CHANNELS 3 Yrotation Xrotation Zrotation
      JOINT RightShoulder
      {
       OFFSET -13.519700 0.000000 0.000000
       CHANNELS 3 Yrotation Xrotation Zrotation
       JOINT RightElbow
       {
        OFFSET 0.000000 -29.696600 0.000000
        CHANNELS 3 Yrotation Xrotation Zrotation
        JOINT RightWrist
        {
         OFFSET 0.000000 -24.004700 0.000000
         CHANNELS 3 Yrotation Xrotation Zrotation
         End Site
         {
          OFFSET 0.000000 -17.728500 0.000000
         }
        }
       }
      }
     }
     JOINT LeftCollar
     {
      OFFSET 2.921100 9.558500 0.000000
      CHANNELS 3 Yrotation Xrotation Zrotation
      JOINT LeftShoulder
      {
       OFFSET 13.519700 0.000000 0.000000
       CHANNELS 3 Yrotation Xrotation Zrotation
       JOINT LeftElbow
       {
        OFFSET 0.000000 -29.696600 0.000000
        CHANNELS 3 Yrotation Xrotation Zrotation
        JOINT LeftWrist
        {
         OFFSET 0.000000 -24.004700 0.000000
         CHANNELS 3 Yrotation Xrotation Zrotation
         End Site
         {
          OFFSET 0.000000 -17.728500 0.000000
         }
        }
       }
      }
     }
    }
   }
  }
 }
 JOINT RightHip
 {
  OFFSET -7.771700 -0.012900 -0.001300
  CHANNELS 3 Yrotation Xrotation Zrotation
  JOINT RightKnee
  {
   OFFSET 0.000000 -40.869800 0.001200
   CHANNELS 3 Yrotation Xrotation Zrotation
   JOINT RightAnkle
   {
    OFFSET 0.000000 -39.717900 0.002100
    CHANNELS 3 Yrotation Xrotation Zrotation
    JOINT RightToe
    {
     OFFSET 0.000000 -4.965400 11.033500
     CHANNELS 3 Yrotation Xrotation Zrotation
     End Site
     {
      OFFSET 0.000000 -1.423100 5.872300
     }
    }
   }
  }
 }
 JOINT LeftHip
 {
  OFFSET 7.771700 -0.012900 -0.001300
  CHANNELS 3 Yrotation Xrotation Zrotation
  JOINT LeftKnee
  {
   OFFSET 0.000000 -40.869800 0.001200
   CHANNELS 3 Yrotation Xrotation Zrotation
   JOINT LeftAnkle
   {
    OFFSET 0.000000 -39.717900 0.002100
    CHANNELS 3 Yrotation Xrotation Zrotation
    JOINT LeftToe
    {
     OFFSET 0.000000 -4.965400 11.033500
     CHANNELS 3 Yrotation Xrotation Zrotation
     End Site
     {
      OFFSET 0.000000 -1.423100 5.872300
     }
    }
   }
  }
 }
}
MOTION
Frames: 13
Frame Time: 0.008333
0.000000 85.388000 0.000000 0.000000 -5.767877 0.000000 0.000000 11.653817 0.000000 0.000000 -5.885947 0.000000 0.000000 -0.000000 0.000000 0.000000 -0.000000 0.000000 0.000000 12.528835 0.000000 0.000000 0.711642 0.000000 0.000000 -0.000000 0.000000 0.000000 0.000000 -90.000000 0.000000 -2.309062 0.000000 0.000000 2.309062 0.000000 0.000000 -0.000000 0.000000 0.000000 -0.000000 90.000000 0.000000 -2.309062 0.000000 0.000000 2.309062 0.000000 0.000000 8.520406 0.000000 0.000000 1.905762 0.000000 -0.000000 -4.658285 0.000000 0.000000 -0.000000 0.000000 0.000000 8.520406 0.000000 0.000000 1.905762 0.000000 -0.000000 -4.658285 0.000000 0.000000 -0.000000 0.000000
-21.401186 58.465919 74.742753 176.912268 -29.591043 -3.602950 2.994641 22.059482 3.962318 0.290212 3.099998 0.311931 0.484654 5.028322 0.509853 2.109864 18.745086 2.131694 -3.075476 10.366308 -0.698717 -5.643548 -16.550620 0.109612 3.464292 -3.167072 -0.478390 10.503500 -15.603805 -19.390050 -137.474725 -82.603325 173.982602 17.352157 -13.460105 -46.198518 -8.252160 -4.542156 -3.972450 -4.455971 -16.892258 11.081708 -143.764422 -73.392832 109.763099 -9.587565 0.094899 18.200057 4.640203 -40.434064 1.455175 -4.355705 65.490909 -8.393111 3.843900 5.758219 8.092366 -0.343802 0.652938 -0.158298 -3.841296 -47.346514 5.132535 25.394150 61.026961 21.263365 -10.937868 34.502412 7.267236 -0.280916 -15.546144 -5.163223
-21.413172 58.469311 74.739329 176.947771 -29.588695 -3.618483 2.994266 22.079803 3.923169 0.291437 3.104043 0.309989 0.473901 5.018707 0.532494 2.112990 18.750763 2.125201 -3.044967 10.365712 -0.714126 -5.639911 -16.583479 0.156646 3.473317 -3.126905 -0.514134 10.478584 -15.661377 -19.341765 -137.369643 -82.680185 173.904468 17.343894 -13.462113 -46.190626 -8.242753 -4.507988 -4.012672 -4.418224 -16.883187 11.027290 -143.771736 -73.390137 109.739685 -9.596290 0.090237 18.192282 4.634699 -40.427256 1.451370 -4.291464 65.494594 -8.355594 3.821805 5.758130 8.129520 -0.363264 0.643528 -0.161965 -3.831730 -47.344243 5.078680 25.400651 61.012460 21.300175 -10.924339 34.488493 7.271429 -0.293120 -15.535356 -5.160291
-21.426656 58.472847 74.735486 176.966085 -29.584374 -3.627728 3.011295 22.095329 3.888968 0.299353 3.114949 0.295614 0.468699 5.020015 0.540548 2.125933 18.793851 2.061881 -3.004650 10.322063 -0.634699 -5.558606 -16.611251 0.172877 3.460186 -3.181588 -0.427433 10.514970 -15.557313 -19.408792 -137.444259 -82.630005 173.931276 17.329371 -13.457675 -46.187211 -8.247804 -4.517752 -3.952822 -4.382600 -16.874503 10.970981 -143.766973 -73.383051 109.705661 -9.657968 0.079328 18.161641 4.626721 -40.426709 1.449509 -4.242774 65.498958 -8.325098 3.810905 5.764902 8.145011 -0.364093 0.634110 -0.159310 -3.809886 -47.345199 5.026186 25.402713 61.000778 21.337375 -10.924192 34.478612 7.265347 -0.290844 -15.528466 -5.159704
-21.438758 58.476114 74.731948 177.007653 -29.572391 -3.665217 3.016984 22.102925 3.875207 0.300643 3.118794 0.294015 0.466626 5.026220 0.536254 2.138229 18.814033 2.036275 -2.968170 10.309534 -0.595669 -5.474195 -16.615701 0.186912 3.455766 -3.171683 -0.429905 10.522190 -15.543783 -19.410667 -137.429521 -82.612706 173.899198 17.311131 -13.461793 -46.182708 -8.246702 -4.508383 -3.932737 -4.366744 -16.877303 10.942983 -143.768124 -73.394481 109.695931 -9.710941 0.068492 18.129588 4.611583 -40.428097 1.458318 -4.223718 65.496350 -8.309972 3.801608 5.767371 8.162050 -0.360776 0.635662 -0.155465 -3.846515 -47.352457 5.022146 25.382532 60.990735 21.342489 -10.951179 34.485998 7.221038 -0.264325 -15.527347 -5.143269
-21.449267 58.479846 74.727031 177.091713 -29.563285 -3.738573 2.993059 22.115558 3.880772 0.301966 3.121929 0.292627 0.468277 5.032903 0.529931 2.140825 18.810701 2.045792 -2.951399 10.301477 -0.568436 -5.444672 -16.614213 0.198231 3.457481 -3.144108 -0.467682 10.527629 -15.546970 -19.400092 -137.426000 -82.612886 173.889337 17.304476 -13.465675 -46.184249 -8.237609 -4.481570 -3.948684 -4.354399 -16.880959 10.915302 -143.760321 -73.402628 109.681324 -9.644807 0.081349 18.158069 4.573519 -40.420587 1.478222 -4.243385 65.492405 -8.317237 3.782804 5.769294 8.178982 -0.357691 0.627123 -0.149059 -3.936683 -47.356239 5.042333 25.380450 60.984112 21.360043 -10.976220 34.473736 7.189821 -0.246329 -15.510051 -5.131271
-21.464676 58.482401 74.722104 177.141773 -29.548330 -3.769879 2.986526 22.121316 3.860788 0.303352 3.124558 0.291342 0.500495 5.066056 0.481288 2.119033 18.759440 2.130350 -2.899065 10.349182 -0.612354 -5.362916 -16.588369 0.218522 3.467075 -3.110708 -0.519221 10.543135 -15.533994 -19.404465 -137.479329 -82.614473 173.935051 17.281542 -13.434539 -46.129220 -8.217148 -4.441914 -3.999064 -4.345018 -16.884086 10.889690 -143.753433 -73.408284 109.668395 -9.629798 0.085800 18.158496 4.545967 -40.428616 1.479829 -4.211203 65.502265 -8.299666 3.770461 5.771162 8.197320 -0.367127 0.612244 -0.143816 -3.954235 -47.371358 4.992593 25.345111 60.972110 21.383288 -10.994419 34.495620 7.135131 -0.212333 -15.520782 -5.122112
-21.479757 58.485316 74.715282 177.182932 -29.542260 -3.801324 2.981462 22.129607 3.854137 0.296353 3.121318 0.299889 0.517640 5.080234 0.459605 2.123742 18.768986 2.119979 -2.845572 10.376832 -0.605800 -5.274303 -16.547146 0.233585 3.464647 -3.111978 -0.519472 10.556053 -15.520280 -19.411500 -137.566167 -82.615818 174.019142 17.273547 -13.434397 -46.113329 -8.211269 -4.428174 -3.998137 -4.367723 -16.901167 10.913211 -143.774777 -73.449886 109.713426 -9.636075 0.085284 18.147596 4.590437 -40.421077 1.455278 -4.255124 65.501780 -8.315239 3.744438 5.751998 8.215471 -0.356337 0.626061 -0.136030 -3.978141 -47.378331 4.952872 25.334337 60.962153 21.422080 -11.001108 34.518697 7.101846 -0.194310 -15.539412 -5.121509
-21.495992 58.486307 74.710311 177.231697 -29.517728 -3.832903 2.949246 22.111467 3.855317 0.304588 3.126969 0.290095 0.538430 5.094987 0.438425 2.144060 18.798131 2.074699 -2.808886 10.380422 -0.545040 -5.199406 -16.500315 0.242174 3.447029 -3.136575 -0.476133 10.562319 -15.511018 -19.419416 -137.664849 -82.616074 174.120869 17.271716 -13.441052 -46.119138 -8.223581 -4.433849 -3.951463 -4.390943 -16.913494 10.934733 -143.786361 -73.484502 109.750818 -9.672248 0.072488 18.114762 4.589585 -40.435966 1.438990 -4.276772 65.504759 -8.321815 3.725149 5.744207 8.222444 -0.336401 0.631970 -0.131016 -4.025044 -47.411121 4.885648 25.373830 60.945652 21.524160 -10.924013 34.548352 7.122478 -0.235281 -15.571983 -5.144383
-21.512141 58.486990 74.704756 177.308928 -29.491085 -3.881422 2.925105 22.105223 3.843939 0.327444 3.140311 0.270861 0.526431 5.089131 0.458923 2.156198 18.812017 2.057574 -2.769590 10.403046 -0.516475 -5.122761 -16.445135 0.246746 3.437202 -3.146078 -0.461626 10.565019 -15.508743 -19.425575 -137.749972 -82.616838 174.208493 17.267808 -13.445731 -46.123189 -8.246952 -4.450511 -3.904102 -4.370090 -16.890623 10.885047 -143.761891 -73.473574 109.736646 -9.653204 0.075314 18.116637 4.537887 -40.451274 1.439068 -4.280026 65.511249 -8.325017 3.713346 5.743130 8.230375 -0.325166 0.628187 -0.128831 -4.115457 -47.440451 4.847781 25.447159 60.928533 21.626383 -10.862688 34.550983 7.160241 -0.298009 -15.583075 -5.161903
-21.531485 58.488201 74.696639 177.345706 -29.478340 -3.892449 2.938426 22.112052 3.818550 0.306703 3.131291 0.288390 0.551077 5.106892 0.444562 2.163457 18.818422 2.055424 -2.763213 10.400620 -0.484025 -4.998858 -16.350555 0.212753 3.432660 -3.150607 -0.464324 10.541617 -15.531070 -19.406145 -137.816775 -82.637858 174.303127 17.260418 -13.447253 -46.125836 -8.270091 -4.465918 -3.876439 -4.350765 -16.870282 10.841175 -143.728872 -73.460345 109.713158 -9.640228 0.076638 18.124821 4.536326 -40.460997 1.418684 -4.232057 65.529009 -8.293697 3.701520 5.747040 8.248497 -0.332578 0.615712 -0.123245 -4.154272 -47.455009 4.790862 25.514700 60.911888 21.717024 -10.839825 34.568765 7.182416 -0.311314 -15.605242 -5.189163
-21.553158 58.490559 74.685244 177.390021 -29.482295 -3.893968 2.941446 22.139445 3.785051 0.308421 3.134482 0.288094 0.557317 5.108048 0.448341 2.171236 18.824079 2.054426 -2.701221 10.457321 -0.487728 -4.935347 -16.296144 0.222212 3.432139 -3.157911 -0.468418 10.550712 -15.518114 -19.424682 -137.819392 -82.605530 174.257649 17.251029 -13.438307 -46.094983 -8.282460 -4.465378 -3.880628 -4.346721 -16.866269 10.832401 -143.707576 -73.424932 109.666967 -9.628438 0.081589 18.147532 4.563583 -40.449459 1.383128 -4.141347 65.556774 -8.237008 3.655819 5.725455 8.306538 -0.333082 0.631124 -0.137371 -4.185157 -47.451199 4.710310 25.548681 60.902451 21.785977 -10.816909 34.574954 7.168945 -0.312267 -15.618464 -5.199876
-21.568316 58.491432 74.677199 177.468461 -29.460927 -3.952822 2.934806 22.139150 3.802260 0.309735 3.136868 0.287823 0.558586 5.109096 0.448672 2.156035 18.814135 2.069595 -2.616239 10.534624 -0.517214 -4.864221 -16.229835 0.224034 3.446117 -3.155326 -0.482935 10.574895 -15.496044 -19.448421 -137.842522 -82.579567 174.230111 17.242847 -13.430659 -46.063887 -8.236708 -4.439334 -3.944635 -4.393173 -16.874649 10.859911 -143.669863 -73.396309 109.607430 -9.628205 0.086023 18.171126 4.582646 -40.453173 1.365284 -4.228749 65.554603 -8.280723 3.613454 5.711828 8.317291 -0.295136 0.646633 -0.128013 -4.290874 -47.467977 4.692060 25.581117 60.892764 21.851028 -10.755243 34.548997 7.185564 -0.342552 -15.601768 -5.217060
